<svg width="22" height="27" viewBox="0 0 22 27" fill="none" xmlns="http://www.w3.org/2000/svg">
<path fill-rule="evenodd" clip-rule="evenodd" d="M11 0C4.92556 0 0 4.94591 0 11.0455V18.3182C0 20.3555 1.63778 22 3.66667 22H5.33333C6.4379 22 7.33333 21.1046 7.33333 20V14.1818C7.33333 13.0772 6.4379 12.1818 5.33333 12.1818H2.44444V11.0455C2.44444 6.29591 6.27 2.45455 11 2.45455C15.73 2.45455 19.5556 6.29591 19.5556 11.0455V12.1818H16.6667C15.5621 12.1818 14.6667 13.0772 14.6667 14.1818V20C14.6667 21.1046 15.5621 22 16.6667 22H18.2828C18.9857 22 19.5556 22.5698 19.5556 23.2727C19.5556 23.9756 18.9857 24.5455 18.2828 24.5455H12C11.4477 24.5455 11 24.9932 11 25.5455V26C11 26.5523 11.4477 27 12 27H18.3333C20.3622 27 22 24.0373 22 22V11.0455C22 4.94591 17.0744 0 11 0Z" fill="#CFB486"/>
</svg>
