<svg width="33" height="35" viewBox="0 0 33 35" fill="none" xmlns="http://www.w3.org/2000/svg">
<circle cx="16.5" cy="17.5" r="15" stroke="#CFB486" stroke-width="3"/>
<path d="M14.9344 19.54C14.9344 18.8733 15.0744 18.3133 15.3544 17.86C15.6344 17.4067 16.1144 16.9333 16.7944 16.44C17.3944 16.0133 17.821 15.6467 18.0744 15.34C18.341 15.02 18.4744 14.6467 18.4744 14.22C18.4744 13.7933 18.3144 13.4733 17.9944 13.26C17.6877 13.0333 17.2544 12.92 16.6944 12.92C16.1344 12.92 15.581 13.0067 15.0344 13.18C14.4877 13.3533 13.9277 13.5867 13.3544 13.88L12.2944 11.74C12.9477 11.38 13.6544 11.0867 14.4144 10.86C15.1744 10.6333 16.0077 10.52 16.9144 10.52C18.301 10.52 19.3744 10.8533 20.1344 11.52C20.9077 12.1867 21.2944 13.0333 21.2944 14.06C21.2944 14.6067 21.2077 15.08 21.0344 15.48C20.861 15.88 20.601 16.2533 20.2544 16.6C19.9077 16.9333 19.4744 17.2933 18.9544 17.68C18.5677 17.96 18.2677 18.2 18.0544 18.4C17.841 18.6 17.6944 18.7933 17.6144 18.98C17.5477 19.1667 17.5144 19.4 17.5144 19.68V20.26H14.9344V19.54ZM14.6144 23.6C14.6144 22.9867 14.781 22.56 15.1144 22.32C15.4477 22.0667 15.8544 21.94 16.3344 21.94C16.801 21.94 17.201 22.0667 17.5344 22.32C17.8677 22.56 18.0344 22.9867 18.0344 23.6C18.0344 24.1867 17.8677 24.6133 17.5344 24.88C17.201 25.1333 16.801 25.26 16.3344 25.26C15.8544 25.26 15.4477 25.1333 15.1144 24.88C14.781 24.6133 14.6144 24.1867 14.6144 23.6Z" fill="#CFB486"/>
</svg>
