<svg width="29" height="25" viewBox="0 0 29 25" fill="none" xmlns="http://www.w3.org/2000/svg">
<path d="M6.56485 3.53226C6.17683 3.53226 5.6918 3.72485 5.49779 3.11499C4.91575 1.18909 3.42834 0.868108 1.68224 0.964403C0.906197 1.0286 -0.0315214 0.900206 0.000813696 1.95945C0.0331488 3.05079 0.970868 2.98659 1.71458 2.8903C3.16966 2.72981 3.65468 3.37177 3.88103 4.752C4.43073 8.21861 5.1421 11.6852 5.82114 15.1197C6.30617 17.6234 7.85825 18.9073 10.4127 18.9394C14.1636 18.9715 17.9468 18.9715 21.6977 18.9394C24.2845 18.9394 25.8366 17.6876 26.3216 15.1518C26.9683 11.8457 27.5827 8.5396 28.2294 5.26557C28.4881 4.11003 28.1324 3.53226 26.9037 3.53226H6.56485ZM26.2246 5.45816C25.5779 8.79638 25.0282 11.9741 24.3492 15.1518C24.0905 16.4037 23.1851 17.0135 21.8917 17.0135C18.0115 17.0135 14.1636 17.0135 10.2834 17.0135C8.89298 17.0135 8.05226 16.2753 7.79358 14.9592C7.21155 12.1667 6.72652 9.30995 6.14449 6.48531C5.95048 5.58655 6.27383 5.42606 7.11454 5.42606" fill="#4F4F4F"/>
<path d="M13.0406 23.5452C13.7856 22.8056 13.7856 21.6065 13.0406 20.867C12.2956 20.1274 11.0877 20.1274 10.3426 20.867C9.59761 21.6065 9.59761 22.8056 10.3426 23.5452C11.0877 24.2847 12.2956 24.2847 13.0406 23.5452Z" fill="#4F4F4F"/>
<path d="M20.0638 24.0573C21.0892 23.8169 21.7241 22.7969 21.482 21.779C21.2399 20.7612 20.2124 20.1309 19.187 20.3712C18.1616 20.6116 17.5266 21.6316 17.7687 22.6494C18.0109 23.6673 19.0384 24.2976 20.0638 24.0573Z" fill="#4F4F4F"/>
<line x1="6" y1="9" x2="27" y2="9" stroke="#4F4F4F" stroke-width="2"/>
<line x1="6" y1="13" x2="27" y2="13" stroke="#4F4F4F" stroke-width="2"/>
<line x1="13" y1="18" x2="13" y2="5" stroke="#4F4F4F" stroke-width="2"/>
<line x1="20" y1="18" x2="20" y2="5" stroke="#4F4F4F" stroke-width="2"/>
</svg>
