<!-- Generated by IcoMoon.io -->
<svg version="1.1" xmlns="http://www.w3.org/2000/svg" width="1024" height="1024" viewBox="0 0 1024 1024">
<title></title>
<g id="icomoon-ignore">
</g>
<path fill="#e7958a" d="M1007.633 472.214l-369.803-369.811c-10.556-10.556-24.626-16.351-39.628-16.351-15.019 0-29.080 5.803-39.636 16.351l-33.575 33.584c-10.548 10.54-16.359 24.617-16.359 39.628 0 15.002 5.811 29.554 16.359 40.094l215.738 216.212h-685.408c-30.903 0-55.321 24.193-55.321 55.104v47.478c0 30.911 24.418 57.543 55.321 57.543h687.856l-218.177 217.419c-10.548 10.556-16.359 24.251-16.359 39.261 0 14.994 5.811 28.888 16.359 39.436l33.575 33.475c10.556 10.556 24.617 16.309 39.636 16.309 15.002 0 29.071-5.828 39.628-16.384l369.803-369.803c10.581-10.59 16.401-24.726 16.359-39.753 0.033-15.077-5.778-29.221-16.367-39.794z"></path>
</svg>
