<!-- Generated by IcoMoon.io -->
<svg version="1.1" xmlns="http://www.w3.org/2000/svg" width="1024" height="1024" viewBox="0 0 1024 1024">
<title></title>
<g id="icomoon-ignore">
</g>
<path fill="#e7958a" d="M966.44 431.699l1.598 0.35h-685.214l215.406-215.881c10.548-10.54 16.334-24.817 16.334-39.803s-5.786-29.163-16.334-39.728l-33.517-33.534c-10.54-10.54-24.584-16.367-39.561-16.367-14.985 0-29.038 5.786-39.578 16.326l-369.248 369.214c-10.581 10.581-16.367 24.676-16.326 39.67-0.042 15.077 5.744 29.18 16.326 39.745l369.248 369.248c10.54 10.531 24.584 16.326 39.578 16.326 14.977 0 29.022-5.803 39.561-16.326l33.517-33.534c10.548-10.523 16.334-24.576 16.334-39.561 0-14.977-5.786-28.289-16.334-38.82l-217.837-217.088h686.813c30.862 0 56.795-26.599 56.795-57.444v-47.429c0-30.845-26.699-55.363-57.56-55.363z"></path>
</svg>
